<svg width="512" height="512" viewBox="0 0 512 512" xmlns="http://www.w3.org/2000/svg">
  <!-- App Icon 512px — warm background + rounded corners + full-detail mark -->
  <defs>
    <radialGradient id="bg" cx="50%" cy="40%" r="65%">
      <stop offset="0%"   stop-color="#fef6e4"/>
      <stop offset="100%" stop-color="#f0deb8"/>
    </radialGradient>
    <linearGradient id="mp-g1" x1="256" y1="106" x2="256" y2="256" gradientUnits="userSpaceOnUse">
      <stop offset="0%" stop-color="#378ADD"/><stop offset="100%" stop-color="#378ADD" stop-opacity="0"/>
    </linearGradient>
    <linearGradient id="mp-g2" x1="373" y1="163" x2="256" y2="256" gradientUnits="userSpaceOnUse">
      <stop offset="0%" stop-color="#BA7517"/><stop offset="100%" stop-color="#BA7517" stop-opacity="0"/>
    </linearGradient>
    <linearGradient id="mp-g3" x1="402" y1="289" x2="256" y2="256" gradientUnits="userSpaceOnUse">
      <stop offset="0%" stop-color="#1D9E75"/><stop offset="100%" stop-color="#1D9E75" stop-opacity="0"/>
    </linearGradient>
    <linearGradient id="mp-g4" x1="321" y1="391" x2="256" y2="256" gradientUnits="userSpaceOnUse">
      <stop offset="0%" stop-color="#D85A30"/><stop offset="100%" stop-color="#D85A30" stop-opacity="0"/>
    </linearGradient>
    <linearGradient id="mp-g5" x1="191" y1="391" x2="256" y2="256" gradientUnits="userSpaceOnUse">
      <stop offset="0%" stop-color="#534AB7"/><stop offset="100%" stop-color="#534AB7" stop-opacity="0"/>
    </linearGradient>
    <linearGradient id="mp-g6" x1="110" y1="289" x2="256" y2="256" gradientUnits="userSpaceOnUse">
      <stop offset="0%" stop-color="#888780"/><stop offset="100%" stop-color="#888780" stop-opacity="0"/>
    </linearGradient>
    <linearGradient id="mp-g7" x1="139" y1="163" x2="256" y2="256" gradientUnits="userSpaceOnUse">
      <stop offset="0%" stop-color="#639922"/><stop offset="100%" stop-color="#639922" stop-opacity="0"/>
    </linearGradient>
    <clipPath id="rounded">
      <rect width="512" height="512" rx="96" ry="96"/>
    </clipPath>
  </defs>
  <g clip-path="url(#rounded)">
    <rect width="512" height="512" fill="url(#bg)"/>
    <path d="M 256 106 Q 203 203 256 256" stroke="url(#mp-g1)" stroke-width="13" fill="none" stroke-linecap="round"/>
    <path d="M 373 163 Q 264 181 256 256" stroke="url(#mp-g2)" stroke-width="11" fill="none" stroke-linecap="round"/>
    <path d="M 402 289 Q 319 216 256 256" stroke="url(#mp-g3)" stroke-width="12" fill="none" stroke-linecap="round"/>
    <path d="M 321 391 Q 327 281 256 256" stroke="url(#mp-g4)" stroke-width="14" fill="none" stroke-linecap="round"/>
    <path d="M 191 391 Q 281 327 256 256" stroke="url(#mp-g5)" stroke-width="11" fill="none" stroke-linecap="round"/>
    <path d="M 110 289 Q 216 319 256 256" stroke="url(#mp-g6)" stroke-width="9"  fill="none" stroke-linecap="round"/>
    <path d="M 139 163 Q 182 264 256 256" stroke="url(#mp-g7)" stroke-width="12" fill="none" stroke-linecap="round"/>
    <circle cx="256" cy="106" r="21" fill="#378ADD"/>
    <circle cx="373" cy="163" r="18" fill="#BA7517"/>
    <circle cx="402" cy="289" r="20" fill="#1D9E75"/>
    <circle cx="321" cy="391" r="23" fill="#D85A30"/>
    <circle cx="191" cy="391" r="19" fill="#534AB7"/>
    <circle cx="110" cy="289" r="16" fill="#888780"/>
    <circle cx="139" cy="163" r="20" fill="#639922"/>
    <circle cx="256" cy="256" r="15" fill="#1C1A2E"/>
  </g>
</svg>
