<svg width="32" height="32" viewBox="0 0 32 32" xmlns="http://www.w3.org/2000/svg">
  <!--
    Many Paths — Icon 32px
    Simplified: dots + very short path stubs
  -->
  <defs>
    <linearGradient id="g1" x1="16" y1="6" x2="16" y2="16" gradientUnits="userSpaceOnUse">
      <stop offset="0%" stop-color="#378ADD"/><stop offset="100%" stop-color="#378ADD" stop-opacity="0"/>
    </linearGradient>
    <linearGradient id="g2" x1="23.8" y1="9.8" x2="16" y2="16" gradientUnits="userSpaceOnUse">
      <stop offset="0%" stop-color="#BA7517"/><stop offset="100%" stop-color="#BA7517" stop-opacity="0"/>
    </linearGradient>
    <linearGradient id="g3" x1="25.7" y1="18.2" x2="16" y2="16" gradientUnits="userSpaceOnUse">
      <stop offset="0%" stop-color="#1D9E75"/><stop offset="100%" stop-color="#1D9E75" stop-opacity="0"/>
    </linearGradient>
    <linearGradient id="g4" x1="20.3" y1="25" x2="16" y2="16" gradientUnits="userSpaceOnUse">
      <stop offset="0%" stop-color="#D85A30"/><stop offset="100%" stop-color="#D85A30" stop-opacity="0"/>
    </linearGradient>
    <linearGradient id="g5" x1="11.7" y1="25" x2="16" y2="16" gradientUnits="userSpaceOnUse">
      <stop offset="0%" stop-color="#534AB7"/><stop offset="100%" stop-color="#534AB7" stop-opacity="0"/>
    </linearGradient>
    <linearGradient id="g6" x1="6.3" y1="18.2" x2="16" y2="16" gradientUnits="userSpaceOnUse">
      <stop offset="0%" stop-color="#888780"/><stop offset="100%" stop-color="#888780" stop-opacity="0"/>
    </linearGradient>
    <linearGradient id="g7" x1="8.2" y1="9.8" x2="16" y2="16" gradientUnits="userSpaceOnUse">
      <stop offset="0%" stop-color="#639922"/><stop offset="100%" stop-color="#639922" stop-opacity="0"/>
    </linearGradient>
  </defs>
  <!-- Trails -->
  <path d="M 16 6 Q 12.9 12.9 16 16"     stroke="url(#g1)" stroke-width="1.5" fill="none" stroke-linecap="round"/>
  <path d="M 23.8 9.8 Q 16.5 11.3 16 16" stroke="url(#g2)" stroke-width="1.3" fill="none" stroke-linecap="round"/>
  <path d="M 25.7 18.2 Q 20 13.5 16 16"  stroke="url(#g3)" stroke-width="1.4" fill="none" stroke-linecap="round"/>
  <path d="M 20.3 25 Q 20.4 17.6 16 16"  stroke="url(#g4)" stroke-width="1.6" fill="none" stroke-linecap="round"/>
  <path d="M 11.7 25 Q 17.6 20.4 16 16"  stroke="url(#g5)" stroke-width="1.3" fill="none" stroke-linecap="round"/>
  <path d="M 6.3 18.2 Q 13.5 20 16 16"   stroke="url(#g6)" stroke-width="1.1" fill="none" stroke-linecap="round"/>
  <path d="M 8.2 9.8 Q 11.4 16.5 16 16"  stroke="url(#g7)" stroke-width="1.4" fill="none" stroke-linecap="round"/>
  <!-- Dots -->
  <circle cx="16"   cy="6"    r="2.5" fill="#378ADD"/>
  <circle cx="23.8" cy="9.8"  r="2.2" fill="#BA7517"/>
  <circle cx="25.7" cy="18.2" r="2.4" fill="#1D9E75"/>
  <circle cx="20.3" cy="25"   r="2.6" fill="#D85A30"/>
  <circle cx="11.7" cy="25"   r="2.2" fill="#534AB7"/>
  <circle cx="6.3"  cy="18.2" r="2.0" fill="#888780"/>
  <circle cx="8.2"  cy="9.8"  r="2.3" fill="#639922"/>
  <circle cx="16"   cy="16"   r="2.0" fill="#1C1A2E"/>
</svg>
